<svg xmlns:xlink="http://www.w3.org/1999/xlink" xmlns="http://www.w3.org/2000/svg" width="204" height="100"><path id="logoJS" d="M0 0v1e2h1e2V0H0zm55 74.5C55 83 50.6 90 40.8 90c-6.7.0-11.2-2.6-14.3-8l6.8-5c1.6 3 3.9 4.4 6.2 4.4 3.6.0 5.5-1.8 5.5-7.7V45h10v29.5zM75.8 90c-5.8.0-11.9-2.2-16.4-6.4l5.7-6.8c3.2 2.7 7.3 4.6 11 4.6 4.2.0 6.2-1.6 6.2-4.3.0-2.8-2.5-3.7-6.4-5.3L70 69.4c-4.6-1.8-8.9-5.6-8.9-12.1.0-7.3 6.5-13.1 15.8-13.1 5.1.0 10.5 2 14.3 5.8l-5.1 6.3c-2.9-2.2-5.6-3.5-9.2-3.5-3.5.0-5.6 1.5-5.6 4 0 2.7 2.9 3.7 6.7 5.2l5.7 2.3c5.4 2.2 8.8 5.8 8.8 12 0 7.3-6.1 13.7-16.7 13.7z"></path><path id="logoORG" d="M11.6 129.1c0-8.8 5-13.8 12.2-13.8 7.3.0 12.2 5.1 12.2 13.8.0 8.8-5 14.1-12.2 14.1-7.3.0-12.2-5.3-12.2-14.1zm18.2-.5c0-5.4-2.3-8.6-6-8.6s-6 3.2-6 8.6 2.3 8.8 6 8.8 6-3.4 6-8.8zm25.9 14.2-5.2-9.7h-3.3v9.7h-6.1v-26.9h9.7c5.7.0 10.4 2 10.4 8.4.0 4-1.9 6.5-4.8 7.8l6.1 10.8h-6.8zm-8.6-15.2h3.1c3.2.0 4.9-1.4 4.9-4s-1.7-3.5-4.9-3.5h-3.1v7.5zm18.1 1.8c0-8.9 6-14.1 13.1-14.1a11.78 11.78.0 018.5 3.5l-3.2 3.9c-1.4-1.2-2.8-2.1-5.1-2.1-4.2.0-7.1 3.3-7.1 8.7.0 5.5 2.5 8.7 7.6 8.7 1.1.0 2.2-.3 2.9-.8v-4.6h-4.5v-5h9.8V140c-1.9 1.8-5.1 3.3-8.9 3.3-7.3-.1-13.1-4.8-13.1-13.9zM95 109v40H5v-40h90m5-5H0v50h1e2v-50z"></path><path d="M115.8 75.1c0-8.8 5-13.8 12.2-13.8 7.3.0 12.2 5.1 12.2 13.8.0 8.8-5 14.1-12.2 14.1-7.3.0-12.2-5.3-12.2-14.1zm18.2.0c0-5.4-2.3-8.6-6-8.6s-6 3.2-6 8.6 2.3 8.8 6 8.8c3.7.1 6-3.4 6-8.8zm25.8 13.7-5.2-9.7h-3.3v9.7h-6.1v-27h9.7c5.7.0 10.4 2 10.4 8.4.0 4-1.9 6.5-4.8 7.8l6.1 10.8h-6.8zm-8.5-14.6h3.1c3.2.0 4.9-1.4 4.9-4s-1.7-3.5-4.9-3.5h-3.1v7.5zm18.1 1.2c0-8.9 6-14.1 13.1-14.1a11.78 11.78.0 018.5 3.5l-3.2 3.9c-1.4-1.2-2.8-2.1-5.1-2.1-4.2.0-7.1 3.3-7.1 8.7.0 5.5 2.5 8.7 7.6 8.7 1.1.0 2.2-.3 2.9-.8v-4.6h-4.5v-5h9.8V86c-1.9 1.8-5.1 3.3-8.9 3.3-7.3-.1-13.1-4.8-13.1-13.9zM199 5v90h-90V5h90m5-5H104v1e2h1e2V0z"></path></svg>